PathFileType	4	(X/Y/Z)	Patient4_TMGait_0pt5_01_left_01.trc.trc
DataRate	CameraRate	NumFrames	NumMarkers	Units	OrigDataRate	OrigDataStartFrame	OrigNumFrames
74.468085106383	74.468085106383	4	33	mm	74.468085106383	53	       141
Frame#	Time	L.ASIS			Sacral			L.Shoulder			Chest			R.Shoulder			Neck			R.ASIS			R.Thigh.Superior			R.Thigh.Lateral			R.Thigh.Inferior			R.Patella			L.Thigh.Superior			L.Thigh.Lateral			L.Thigh.Inferior			L.Patella			L.Shank.Superior			L.Shank.Lateral			L.Shank.Inferior			R.Shank.Superior			R.Shank.Lateral			R.Shank.Inferior			R.Heel			R.Midfoot.Superior			R.Midfoot.Lateral			R.Toe			L.Heel			L.Midfoot.Lateral			L.Midfoot.Superior			L.Toe			L.Elbow			L.Wrist			R.Elbow			R.Wrist			
		X1	Y1	Z1	X2	Y2	Z2	X3	Y3	Z3	X4	Y4	Z4	X5	Y5	Z5	X6	Y6	Z6	X7	Y7	Z7	X8	Y8	Z8	X9	Y9	Z9	X10	Y10	Z10	X11	Y11	Z11	X12	Y12	Z12	X13	Y13	Z13	X14	Y14	Z14	X15	Y15	Z15	X16	Y16	Z16	X17	Y17	Z17	X18	Y18	Z18	X19	Y19	Z19	X20	Y20	Z20	X21	Y21	Z21	X22	Y22	Z22	X23	Y23	Z23	X24	Y24	Z24	X25	Y25	Z25	X26	Y26	Z26	X27	Y27	Z27	X28	Y28	Z28	X29	Y29	Z29	X30	Y30	Z30	X31	Y31	Z31	X32	Y32	Z32	X33	Y33	Z33	

53	1.868285714286	763.360381544534	966.954263469634	291.506235520041	541.012167553453	1001.613023091686	443.584164415151	701.255646806430	1435.302918314877	260.851861469839	801.681854486431	1373.283112510050	426.893102149185	707.832631267448	1445.609217278225	597.369034876883	692.641742115712	1498.761066059446	411.104618267212	768.748899541663	948.543342654455	566.204185154863	852.981629481227	773.429153260685	537.899128661543	808.263020039931	651.910115938267	606.777112917102	899.445601469437	612.063809418739	529.632938149088	916.081189054432	498.214343387761	551.705139094521	813.316533641683	754.165148403765	324.289198149843	725.693263300648	637.271611614266	268.604312763178	807.933239987741	561.503808062637	335.337667513342	807.139458614403	492.301579425282	347.529548374755	785.070151355955	419.796972493349	340.597082821794	700.861611098690	299.754301391309	295.456957221571	757.246826613206	194.703476843466	371.173654167718	841.448801434444	422.970745788841	556.493129876095	720.305668864859	379.751701375965	613.020016619497	709.776088243052	271.000526300207	564.082401052312	511.613561991858	206.219105338941	527.210125869233	678.889834856276	153.705065216664	581.659309508061	567.924140827250	155.445808186245	608.595278773868	741.224304794512	44.160680292557	622.108239869042	635.024070365086	36.701803594363	421.144643589213	706.212099197210	34.474638059794	337.252371291060	789.054301307922	96.935955328694	360.424135002663	916.659413397927	49.093578094738	328.568583109261	726.073993694197	1084.362458203287	131.273735167534	866.073301797204	862.885763584567	141.322367933538	669.513732933086	1098.891687563756	712.011784136839	804.751955578452	876.662922109530	699.273086787207	
54	1.881714285714	763.291819290361	967.116134848240	290.791717539920	539.993661431173	1002.083208656537	441.319096530327	702.901639109476	1436.267241580575	260.314125999170	801.460419214304	1373.490108350954	427.153778392494	706.168902757244	1445.483372568387	597.007091992304	692.957363095927	1499.265370786938	410.663312015717	767.008231829137	949.507305601151	565.518960127588	852.955786357836	776.034124756997	536.517586467893	810.379118560741	654.319335239514	605.871130531644	901.057800143908	615.233660022286	527.892915811658	919.964615881138	502.396842686114	550.407640768215	811.421911010538	753.444822027796	323.974175040406	722.973675775510	637.143994817988	267.942747242926	804.251775885356	560.756888068506	335.056937173563	802.797249025436	491.597185108963	347.372251467692	780.410835437209	419.341695225578	340.444712176587	695.698417815052	299.702718586327	295.147150782778	751.191685382001	194.422963471930	371.160356942651	847.842765466316	425.298290947819	555.959316463917	728.925264467244	377.497480133592	613.492269652023	722.176040759484	268.291859695767	564.726227397578	526.199718018405	195.311132387969	529.667098408093	696.285578816786	150.090009118257	582.771449355500	585.423853403616	147.016816321265	610.574284501090	763.455851616874	43.397928018957	622.462604870545	628.207597041789	36.711696082912	421.165145998699	699.452201999920	34.470554634290	337.266944892491	782.356320476857	96.813730627996	360.509340938065	909.943038775332	48.883303422422	328.618631604612	731.993914406219	1087.033267215622	127.737127554488	881.137347472600	871.483531468582	139.102027131680	662.081406041962	1098.871564245081	709.756589695021	782.621564903243	867.670304333216	703.113892064748	
55	1.895142857143	763.234171531532	967.167253264812	290.233838316900	539.024237107592	1002.463728365721	439.167721382345	704.595963678746	1437.057012416515	259.841429766498	801.271886430320	1373.562391063562	427.476079956886	704.560838524986	1445.297114890730	596.692460869765	693.274604761949	1499.645590905313	410.245241032597	765.270734963633	950.258220145160	564.956316863263	852.639831780579	778.192128653891	535.389889692071	811.881203761766	656.371915695518	605.230388443446	901.957661740985	617.832098933879	526.469395542540	922.983556853909	506.280794442085	549.465192764212	809.552713026714	752.697729277599	323.742580267166	720.346386928995	636.973278638604	267.308363688185	800.665750249633	559.993793238501	334.782851723575	798.558744080748	490.863515027851	347.190036194721	775.835457740736	418.845718003406	340.278370876750	690.601942437797	299.624843186591	294.824683320917	745.180822117091	194.111326976288	371.121824429345	853.751686314778	427.262495410316	555.712863770426	737.423948716707	374.405036566242	614.152649645366	735.077254827117	264.859154056832	565.551278673020	542.043738768465	182.911558820707	532.102013300446	714.723661718067	145.740524711103	583.984178739293	604.178792599125	137.440565898074	612.613778971002	787.062558974156	42.399343132523	623.042212336908	621.409993444724	36.729846641058	421.182495979200	692.701823868146	34.462643382710	337.280189786812	775.681588331149	96.674630048420	360.588043463231	903.249816002598	48.614965499030	328.665363036773	737.666086115610	1089.638687195040	124.272473718606	895.763997877614	880.461369087187	137.115512588180	654.938863869877	1098.932401041754	707.627007287091	760.531049435405	860.138110883019	706.773178759294	
56	1.908571428571	763.188654390318	967.110373119704	289.810205436203	538.123187357095	1002.752806465317	437.137002720000	706.302783279060	1437.666177488741	259.434619864206	801.118258190008	1373.501816286730	427.847274174904	703.024192826169	1445.047317586574	596.414810199551	693.598983322938	1499.902202406845	409.857810914223	763.549431936593	950.782187528798	564.504242368738	852.009955751496	779.854635575926	534.554035377496	812.680616662332	658.017462443933	604.880021129428	902.117368658865	619.812248896267	525.439501458107	925.086683219295	509.815986798118	548.922617852692	807.727621881912	751.931674694367	323.576322103818	717.800403420774	636.771224869068	266.701356282070	797.160033517458	559.218161586982	334.503151468994	794.403199434921	490.109167290842	346.979875287579	771.326093829393	418.316777212762	340.092842741265	685.556694167468	299.528071995021	294.487520760818	739.208477796520	193.775680262630	371.052220638288	859.118312670020	428.881110794945	555.771819037963	745.766715134567	370.599549116328	614.966430506116	748.421195652092	260.908477614537	566.530204569452	559.235149745260	169.388062203939	534.374531025604	734.088819517767	140.960181480927	585.268594730433	624.149505831145	127.088799563849	614.614706131774	811.779774438466	41.484342966627	623.867339160977	614.637715787363	36.759949569325	421.189659334280	685.963018124769	34.453170847048	337.289864844391	769.031118805047	96.523327224864	360.655594186106	896.580825095651	48.292172714143	328.705849678885	743.130173129492	1092.146866446655	120.918058619987	909.896884266541	889.742339041637	135.377720244216	647.990428511236	1099.096149429675	705.669246059922	738.720995311023	854.101290392331	710.237149165076	
